<svg width="37" height="37" viewBox="0 0 37 37" fill="none" xmlns="http://www.w3.org/2000/svg">
<path fill-rule="evenodd" clip-rule="evenodd" d="M17.6587 25.8616V25.2064L17.5859 25.0608C17.5131 22.9496 17.5131 20.8383 17.5131 18.5815C17.5131 18.3631 17.5859 18.1447 17.7315 17.9991C17.7315 17.902 17.7962 17.8697 17.8609 17.8373C17.8933 17.8211 17.9256 17.805 17.9499 17.7807H18.0227C18.0227 17.7079 18.0955 17.7079 18.0955 17.7079H18.4595C18.9691 17.7807 19.3331 18.1447 19.3331 18.6543C19.3331 20.9111 19.3331 23.0224 19.2603 25.2792V25.8616L18.5323 26.5168H18.3139L17.6587 25.8616ZM23.9941 24.7522C24.0178 24.7579 24.0415 24.7637 24.0652 24.7696H23.9924L23.9941 24.7522ZM24.5748 18.9455L23.9941 24.7522C23.4354 24.6184 22.8767 24.5571 22.318 24.6968C22.3551 23.6953 22.43 22.6937 22.5041 21.7018L22.5041 21.7018L22.5041 21.7017L22.5041 21.7016L22.5042 21.7016C22.5755 20.7468 22.6463 19.801 22.682 18.8727C22.682 18.6543 22.7548 18.4359 22.9732 18.2903C22.9732 18.2418 22.9975 18.2175 23.046 18.2175C23.0824 18.2175 23.0824 18.1993 23.0824 18.1811C23.0824 18.1629 23.0824 18.1447 23.1188 18.1447L23.6284 17.9263H23.7012C23.9196 17.9263 24.2108 18.0719 24.3564 18.2903C24.502 18.5087 24.5748 18.7271 24.5748 18.9455ZM26.322 25.5704L24.7204 24.8424L25.3028 18.8727C25.3157 18.834 25.3263 18.7976 25.3363 18.7635C25.3825 18.605 25.4143 18.4958 25.594 18.4359H25.6668L25.8852 18.2175H26.3948C26.6132 18.2175 26.9045 18.3631 27.0501 18.5815C27.1957 18.7999 27.2685 19.0183 27.2685 19.2367L26.3948 25.716V25.4976L26.322 25.5704ZM12.1986 24.5512L12.1682 24.5613L11.6162 19.4551C11.5434 19.0183 11.1066 18.7271 10.597 18.7271H10.0146C10.0146 18.7999 9.94177 18.7999 9.94177 18.7999C9.72336 19.0183 9.72336 19.2367 9.72336 19.4551C9.83256 20.4015 9.95997 21.3479 10.0874 22.2944C10.2148 23.2408 10.3422 24.1872 10.4514 25.1336L12.1682 24.5613L12.1986 24.8424V24.5512ZM21.6628 24.7696C21.0076 24.9152 20.4251 25.1336 19.9155 25.4976V25.2792C19.9405 24.555 19.9569 23.8137 19.9736 23.0611C20.0055 21.6197 20.0383 20.137 20.1339 18.6543C20.1339 18.4359 20.2067 18.2903 20.3523 18.0719H20.6435C20.6435 18.0719 20.6435 17.9991 20.7163 17.9991H20.9348C20.9348 17.9991 20.9348 17.9263 21.0076 17.9263H21.0804C21.59 17.9263 22.0268 18.3631 22.0268 18.8727C21.8084 20.9111 21.7356 22.8768 21.6628 24.9152V24.7696ZM17.0035 25.4248L16.9885 25.418C16.9033 24.0876 16.8726 22.7304 16.8421 21.3828C16.8258 20.6629 16.8095 19.9457 16.7851 19.2367C16.7851 18.9955 16.6852 18.8542 16.5681 18.6886C16.5438 18.6543 16.5189 18.619 16.4939 18.5815C16.3483 18.3631 16.0571 18.3631 15.8387 18.3631H15.1835C14.9651 18.5087 14.8922 18.7999 14.8922 19.0183C14.9286 19.9647 15.0015 20.8929 15.0743 21.8212C15.1471 22.7494 15.2199 23.6776 15.2563 24.624L16.9885 25.418C16.9933 25.4931 16.9983 25.5682 17.0035 25.6432V25.4248ZM12.8538 24.4784H14.4554C14.3098 22.6584 14.1642 20.8383 14.0914 19.0911C14.0914 18.8727 13.9458 18.6543 13.7274 18.5087C13.509 18.3631 13.2178 18.3631 12.9994 18.3631H12.9266C12.8538 18.3631 12.8538 18.4359 12.8538 18.4359H12.781C12.7082 18.4359 12.7082 18.5087 12.7082 18.5087H12.6354C12.6354 18.5815 12.5626 18.5815 12.5626 18.5815H12.4898C12.3442 18.7999 12.2714 18.9455 12.2714 19.1639L12.8538 24.4784Z" fill="black"/>
<path d="M28.9429 27.2448C28.4333 26.808 27.8509 26.3712 27.1957 26.0072C27.4869 23.8232 27.7781 21.712 28.1421 19.5279C28.1421 18.7271 27.5597 17.9991 26.7589 17.9263C26.2492 17.8535 25.7396 18.0719 25.4484 18.4359C25.1572 17.9991 24.7204 17.7079 24.138 17.7079C23.6284 17.7079 23.1916 17.8535 22.8276 18.2175C22.5364 17.7807 22.0268 17.5623 21.5172 17.5623C21.0076 17.5623 20.5707 17.7807 20.2067 18.2175C19.9155 17.8535 19.4787 17.6351 19.0419 17.5623C18.5323 17.5623 18.0955 17.9263 17.7315 18.2903C17.4403 17.8535 16.9307 17.6351 16.4211 17.7807C15.9115 17.7807 15.4019 18.0719 15.1107 18.5087C14.8195 18.1447 14.3098 17.9263 13.8002 17.9991C13.2906 17.9991 12.8538 18.2903 12.6354 18.7271C12.2714 18.4359 11.7618 18.2903 11.2522 18.3631C10.4514 18.4359 9.94177 19.0911 9.94177 19.8919L10.7426 25.5704L8.92255 26.5896H8.84975C8.84975 26.444 8.77695 26.2256 8.77695 25.9344C8.48574 24.3328 8.19454 22.5856 7.97614 21.0567V20.5471V20.2559C9.21376 19.3823 9.94177 17.9991 10.0874 16.4703H10.233L11.9802 15.5966C12.417 15.8879 12.9266 16.1063 13.4362 16.2519C14.7466 16.6887 16.1299 16.6159 17.4403 16.1791C18.2411 15.8879 19.0419 15.451 19.6971 14.9414C19.9155 15.087 20.1339 15.2326 20.4251 15.3054C21.59 15.6694 22.9004 15.5966 24.0652 15.2326L24.7204 14.9414C26.2492 16.4703 28.4333 17.0527 30.5445 16.4703C30.5445 16.6887 30.4717 16.9071 30.4717 17.1255H30.3989C29.9621 20.3287 29.3797 24.0416 28.9429 27.0264C28.8701 27.172 28.7973 27.2448 28.6517 27.3904L28.9429 27.2448Z" fill="black"/>
<path fill-rule="evenodd" clip-rule="evenodd" d="M32.7286 8.97173C31.9277 6.56929 29.3069 5.18607 26.8317 5.76848C26.9773 5.11327 26.8317 4.45806 26.686 3.87565C26.2492 2.71083 25.3028 1.83721 24.2108 1.32761C23.046 0.890798 21.8084 0.890798 20.6435 1.32761C19.8427 1.61881 19.1147 2.05562 18.5323 2.63803C17.0763 1.91002 15.4747 1.83721 13.9458 2.34682C12.1258 2.92923 10.6698 4.38526 10.1602 6.20529C9.06815 5.91408 7.90333 5.91408 6.88412 6.27809C4.26327 7.0061 2.80725 9.69975 3.53526 12.3206C1.49682 13.267 0.550409 15.3782 1.20562 17.3439C1.56963 18.3631 2.37044 19.1639 3.38966 19.6007C4.40887 20.0375 5.50089 20.0375 6.52011 19.6007C8.26734 19.0183 9.43216 17.3439 9.35936 15.5238L9.94177 15.3782C10.597 15.1598 11.1794 14.7958 11.689 14.359C13.145 15.451 15.1107 15.7422 16.7851 15.0142C17.5859 14.7958 18.3867 14.359 18.9691 13.7038C20.2067 14.4318 21.7356 14.5774 23.1188 14.0678L23.9924 13.7038C25.3756 15.3054 27.5597 15.8878 29.5253 15.2326C30.8357 14.7958 31.8549 13.9222 32.5101 12.6846C33.0926 11.5198 33.2382 10.0638 32.8014 8.82613V8.82613L32.7286 8.97173Z" stroke="black"/>
<path d="M29.7437 13.8494C28.3605 14.8686 26.4676 14.6502 25.3028 13.4126C25.23 13.3398 25.1572 13.1214 25.23 13.0486H25.3028C25.3756 12.903 25.4484 12.903 25.6668 12.9758C27.4141 14.6502 28.8701 13.8494 29.3797 13.4854C29.8893 13.1214 31.1997 11.0102 30.6901 9.91815C30.1805 8.82614 30.6901 9.62695 30.7629 9.55415C30.8357 9.48135 31.0541 9.55415 31.1269 9.62695C31.7093 11.1558 31.1269 12.903 29.7437 13.7766V13.8494Z" fill="black"/>
<path d="M25.3028 7.4429C25.23 7.5157 25.1572 7.5885 25.0116 7.5157H24.9388C24.866 7.5157 24.7932 7.3701 24.866 7.1517C25.594 5.91408 25.3028 4.31245 24.138 3.43883C22.9004 2.56522 21.2988 2.49242 20.4251 3.36603C20.2795 3.43883 20.1339 3.43883 19.9883 3.36603C19.9155 3.36603 19.8427 3.22043 19.8427 3.14763C19.8427 3.07483 19.9883 3.00203 20.0611 3.00203C21.0804 1.98281 22.9732 2.05561 24.4292 3.07483C25.8124 4.09405 26.1764 5.69567 25.3028 7.3701V7.4429Z" fill="black"/>
<path d="M16.7851 13.4126C16.3483 13.995 15.2563 14.7958 13.2178 14.2134H12.9266C12.781 14.2134 12.781 14.0678 12.781 13.9222C12.781 13.9222 12.781 13.7766 12.9266 13.7766C13.0722 13.7766 13.0722 13.7766 13.145 13.7766C13.2906 13.8494 15.6931 14.0678 16.4211 13.1942C17.1491 12.4662 17.2947 11.3742 16.8579 10.4278C16.4211 9.55414 15.4747 8.97173 14.5282 9.04453C14.3826 9.04453 14.237 8.97173 14.237 8.89893C14.237 8.82612 14.237 8.75332 14.3098 8.68052C14.3098 8.68052 14.4554 8.60772 14.5282 8.60772C15.6931 8.46212 16.7851 9.11733 17.2947 10.1365C17.8043 11.2286 17.5859 12.539 16.7851 13.4854V13.4126Z" fill="black"/>
<path d="M6.73851 18.5087H6.66571C5.7921 19.0911 4.70008 18.9455 3.97207 18.2175C3.09845 17.2711 2.80725 15.9606 3.17125 14.7958C3.53526 13.7038 4.62728 12.9758 5.7921 12.9758C5.9377 12.9758 6.0833 13.1214 6.0833 13.267C6.0833 13.4126 6.0105 13.4126 5.7921 13.4126C4.77288 13.4126 3.89927 14.0678 3.60806 14.9414C3.24405 15.9606 3.46246 17.0527 4.19047 17.8535C4.84568 18.3631 5.7193 18.4359 6.44731 17.9991C6.52011 17.9991 6.73851 17.9991 6.73851 18.1447C6.73851 18.1447 6.73851 18.2175 6.73851 18.2903C6.73851 18.3631 6.73851 18.3631 6.73851 18.4359V18.5087Z" fill="black"/>
<path fill-rule="evenodd" clip-rule="evenodd" d="M32.0733 28.4825C31.7821 28.9193 32.3645 30.2297 33.311 29.7201C32.5101 29.3561 33.1654 28.2641 34.039 28.9193C34.5486 29.3561 34.6942 30.0841 34.403 30.6665C34.1118 31.2489 33.4566 31.5401 32.8014 31.3217C29.5253 30.6665 25.0116 22.2216 19.4059 28.3369C14.9651 22.0759 9.21375 29.5017 5.7921 30.2297C4.04487 30.5937 3.75366 28.2641 4.70008 27.6816C5.64649 27.172 6.2289 28.3369 5.42809 28.5553C6.37451 29.0649 6.95692 27.9 6.73851 27.3904C5.57369 24.1872 -0.250406 29.3561 3.89926 32.9233C8.04893 36.4906 14.8923 37.9466 19.0419 31.7585C24.0652 38.0922 32.0733 35.1074 33.6022 34.0154C38.9167 30.0113 33.4566 25.2792 32.0005 28.4825H32.0733Z" fill="#FFB800" stroke="black" stroke-width="0.5"/>
</svg>
