<svg width="160" height="175" viewBox="0 0 160 175" fill="none" xmlns="http://www.w3.org/2000/svg">
<rect width="160" height="175" fill="white"/>
<mask id="mask0_0_8324" style="mask-type:luminance" maskUnits="userSpaceOnUse" x="0" y="0" width="160" height="175">
<rect width="160" height="175" fill="white"/>
</mask>
<g mask="url(#mask0_0_8324)">
<path fill-rule="evenodd" clip-rule="evenodd" d="M143.271 79.1519C143.271 116.005 113.394 145.881 76.5424 145.881C39.6874 145.881 9.81165 116.005 9.81165 79.1519C9.81165 42.2971 39.6874 12.4212 76.5424 12.4212C113.394 12.4212 143.271 42.2971 143.271 79.1519Z" fill="#869F3D"/>
<path fill-rule="evenodd" clip-rule="evenodd" d="M112.906 104.198C81.9358 104.198 82.7897 122.36 82.7897 122.36L92.1878 149.715H133.625L143.021 122.36C143.021 122.36 143.877 104.198 112.906 104.198Z" fill="#E36754"/>
<path fill-rule="evenodd" clip-rule="evenodd" d="M92.8425 148.794H132.968L142.101 122.212C142.095 121.44 141.886 116.926 137.918 112.791C133.034 107.7 124.618 105.119 112.905 105.119C101.193 105.119 92.7753 107.7 87.8909 112.791C83.923 116.926 83.714 121.44 83.7082 122.212L92.8425 148.794ZM134.241 150.581H91.5677L81.9255 122.408C81.914 122.176 81.7146 116.678 86.5625 111.595C91.792 106.113 100.654 103.332 112.905 103.332C125.155 103.332 134.019 106.113 139.248 111.595C144.096 116.678 143.897 122.176 143.885 122.408L143.838 122.656L134.241 150.581Z" fill="#484948"/>
<path fill-rule="evenodd" clip-rule="evenodd" d="M147.971 107.338V106.151H147.942C147.32 86.5238 131.38 70.8022 111.792 70.8022C92.2049 70.8022 76.2642 86.5238 75.6425 106.151H75.6135V114.33C75.6135 119.428 79.7498 123.562 84.8554 123.562C89.9592 123.562 94.0993 119.428 94.0993 114.33V112.746C94.0993 110.561 95.8729 108.789 98.059 108.789C100.247 108.789 102.021 110.561 102.021 112.746V120.939C102.021 126.037 106.161 130.173 111.265 130.173C116.37 130.173 120.506 126.037 120.506 120.939V113.801C120.506 111.324 122.518 109.316 124.998 109.316C127.478 109.316 129.485 111.324 129.485 113.801V114.857C129.485 119.957 133.626 124.089 138.729 124.089C143.835 124.089 147.971 119.957 147.971 114.857V107.338Z" fill="#FFFFFE"/>
<path fill-rule="evenodd" clip-rule="evenodd" d="M98.069 107.842C100.744 107.842 102.921 110.021 102.921 112.698V120.9C102.921 125.505 106.663 129.25 111.264 129.25C115.863 129.25 119.605 125.505 119.605 120.9V113.754C119.605 110.785 122.019 108.37 124.986 108.37C127.951 108.37 130.364 110.785 130.364 113.754V114.812C130.364 119.414 134.106 123.159 138.707 123.159C143.308 123.159 147.047 119.414 147.047 114.812L147.019 106.124C146.407 86.7649 130.934 71.6033 111.791 71.6033C92.651 71.6033 77.1757 86.7649 76.564 106.124L76.5351 106.99V114.284C76.5351 118.886 80.2751 122.631 84.8759 122.631C89.477 122.631 93.2187 118.886 93.2187 114.284V112.698C93.2187 110.021 95.3955 107.842 98.069 107.842ZM111.264 131.038C105.679 131.038 101.134 126.489 101.134 120.9V112.698C101.134 111.007 99.7606 109.633 98.069 109.633C96.3793 109.633 95.0062 111.007 95.0062 112.698V114.284C95.0062 119.873 90.4608 124.42 84.8759 124.42C79.291 124.42 74.7478 119.873 74.7478 114.284L74.8128 105.201C75.883 85.2868 91.9645 69.8127 111.791 69.8127C131.618 69.8127 147.7 85.2868 148.77 105.201H148.806L148.837 107.28V114.811C148.837 120.401 144.291 124.948 138.707 124.948C133.122 124.948 128.577 120.401 128.577 114.811V113.754C128.577 111.773 126.966 110.159 124.986 110.159C123.005 110.159 121.392 111.773 121.392 113.754V120.9C121.392 126.489 116.849 131.038 111.264 131.038Z" fill="#484948"/>
<path fill-rule="evenodd" clip-rule="evenodd" d="M112.967 65.2343C112.967 70.086 109.037 74.018 104.185 74.018C99.3337 74.018 95.4036 70.086 95.4036 65.2343C95.4036 60.3842 99.3337 56.4544 104.185 56.4544C109.037 56.4544 112.967 60.3842 112.967 65.2343Z" fill="#FFFFFE"/>
<path fill-rule="evenodd" clip-rule="evenodd" d="M104.247 57.3777C99.8803 57.3777 96.327 60.929 96.327 65.2962C96.327 69.6632 99.8803 73.2184 104.247 73.2184C108.615 73.2184 112.168 69.6632 112.168 65.2962C112.168 60.929 108.615 57.3777 104.247 57.3777ZM104.247 75.0076C98.8936 75.0076 94.5378 70.6499 94.5378 65.2962C94.5378 59.9423 98.8936 55.5885 104.247 55.5885C109.603 55.5885 113.957 59.9423 113.957 65.2962C113.957 70.6499 109.603 75.0076 104.247 75.0076Z" fill="#484948"/>
<path fill-rule="evenodd" clip-rule="evenodd" d="M98.1676 144.397L92.5586 126.885L94.249 126.338L99.8561 143.848L98.1676 144.397Z" fill="#FFFFFE"/>
<path fill-rule="evenodd" clip-rule="evenodd" d="M106.863 144.273L104.804 131.063L106.578 130.791L108.639 144.001L106.863 144.273Z" fill="#FFFFFE"/>
<path fill-rule="evenodd" clip-rule="evenodd" d="M125.543 144.397L123.852 143.848L129.459 126.338L131.15 126.885L125.543 144.397Z" fill="#FFFFFE"/>
<path fill-rule="evenodd" clip-rule="evenodd" d="M116.844 144.273L115.07 144.001L117.131 130.791L118.905 131.063L116.844 144.273Z" fill="#FFFFFE"/>
<path fill-rule="evenodd" clip-rule="evenodd" d="M59.4733 119.783C25.8301 119.783 26.7595 139.475 26.7595 139.475L36.9671 169.134H81.9779L92.1854 139.475C92.1854 139.475 93.1147 119.783 59.4733 119.783Z" fill="#FFFFFE"/>
<path fill-rule="evenodd" clip-rule="evenodd" d="M37.6244 168.211H81.3205L91.2638 139.253C91.2619 138.438 91.0507 133.486 86.7036 128.949C81.382 123.398 72.2194 120.585 59.4733 120.585C46.7255 120.585 37.563 123.398 32.2414 128.949C27.8941 133.486 27.685 138.438 27.6811 139.253L37.6244 168.211ZM82.5963 170H36.3487L25.8951 139.45C25.8836 139.199 25.6668 133.254 30.9137 127.753C36.5789 121.808 46.1862 118.793 59.4733 118.793C72.7587 118.793 82.366 121.808 88.0312 127.753C93.2782 133.254 93.0613 139.199 93.0498 139.45L93.0018 139.698L82.5963 170Z" fill="#484948"/>
<path fill-rule="evenodd" clip-rule="evenodd" d="M97.6299 123.199C97.6299 123.199 97.6299 123.197 97.6299 123.195V121.911H97.5974C96.9235 100.606 79.6191 83.5419 58.3608 83.5419C37.0988 83.5419 19.7961 100.606 19.1224 121.911H19.0879V130.788C19.0879 136.323 23.581 140.809 29.122 140.809C34.663 140.809 39.1544 136.323 39.1544 130.788V129.07C39.1544 126.698 41.0794 124.775 43.4554 124.775C45.8297 124.775 47.7547 126.698 47.7547 129.07V137.962C47.7547 143.497 52.2439 147.983 57.7869 147.983C63.3281 147.983 67.8192 143.497 67.8192 137.962V130.214C67.8192 127.528 70.0015 125.348 72.6924 125.348C75.3831 125.348 77.5654 127.528 77.5654 130.214V131.361C77.5654 136.896 82.0565 141.382 87.5977 141.382C93.1388 141.382 97.6299 136.896 97.6299 131.361V123.199Z" fill="#5D3649"/>
<path fill-rule="evenodd" clip-rule="evenodd" d="M43.4662 123.828C46.3276 123.828 48.656 126.158 48.656 129.022V137.923C48.656 142.963 52.7528 147.061 57.7875 147.061C62.8219 147.061 66.9187 142.963 66.9187 137.923V130.168C66.9187 126.989 69.5042 124.4 72.6822 124.4C75.8602 124.4 78.4455 126.989 78.4455 130.168V131.315C78.4455 136.353 82.5404 140.451 87.5769 140.451C92.6113 140.451 96.7081 136.353 96.7081 131.315L96.6756 121.884C96.0101 100.831 79.1801 84.3413 58.3609 84.3413C37.5396 84.3413 20.7097 100.831 20.0442 121.884L20.0097 122.749V130.741C20.0097 135.779 24.1083 139.879 29.1429 139.879C34.1796 139.879 38.2742 135.779 38.2742 130.741V129.022C38.2742 126.158 40.6045 123.828 43.4662 123.828ZM57.7875 148.849C51.7671 148.849 46.8685 143.948 46.8685 137.923V129.022C46.8685 127.144 45.3419 125.617 43.4662 125.617C41.5885 125.617 40.0617 127.144 40.0617 129.022V130.741C40.0617 136.766 35.1633 141.668 29.1429 141.668C23.1225 141.668 18.2222 136.766 18.2222 130.741L18.2931 120.961C19.4151 99.3518 36.853 82.5526 58.3609 82.5526C79.8669 82.5526 97.3048 99.3518 98.4268 120.961H98.4631L98.4959 123.141V131.315C98.4959 137.338 93.5954 142.241 87.5769 142.241C81.5566 142.241 76.658 137.338 76.658 131.315V130.167C76.658 127.974 74.8743 126.191 72.6822 126.191C70.4882 126.191 68.7064 127.974 68.7064 130.167V137.923C68.7064 143.948 63.8078 148.849 57.7875 148.849Z" fill="#484948"/>
<path fill-rule="evenodd" clip-rule="evenodd" d="M63.8632 79.2141C63.8632 84.0634 59.9312 87.995 55.0814 87.995C50.2294 87.995 46.2996 84.0634 46.2996 79.2141C46.2996 74.3626 50.2294 70.4311 55.0814 70.4311C59.9312 70.4311 63.8632 74.3626 63.8632 79.2141Z" fill="#FFFFFE"/>
<path fill-rule="evenodd" clip-rule="evenodd" d="M55.0195 71.2305C50.6503 71.2305 47.099 74.7833 47.099 79.1519C47.099 83.5206 50.6503 87.0717 55.0195 87.0717C59.3867 87.0717 62.9399 83.5206 62.9399 79.1519C62.9399 74.7833 59.3867 71.2305 55.0195 71.2305ZM55.0195 88.8606C49.6656 88.8606 45.3098 84.5053 45.3098 79.1519C45.3098 73.7988 49.6656 69.4416 55.0195 69.4416C60.3734 69.4416 64.7289 73.7988 64.7289 79.1519C64.7289 84.5053 60.3734 88.8606 55.0195 88.8606Z" fill="#484948"/>
<path fill-rule="evenodd" clip-rule="evenodd" d="M55.9471 70.4311H54.1541C54.1541 54.5789 48.231 50.5572 46.4151 49.7035L46.2458 49.6172C45.6726 49.2719 45.0167 49.0894 44.3471 49.0894C42.3195 49.0894 40.6709 50.7358 40.6709 52.7579C40.6709 54.7783 42.3195 56.4247 44.3471 56.4247V58.2129C41.3307 58.2129 38.8782 55.7645 38.8782 52.7579C38.8782 49.7475 41.3307 47.3012 44.3471 47.3012C45.3435 47.3012 46.3209 47.5719 47.1731 48.086C49.2371 49.055 55.9471 53.5274 55.9471 70.4311Z" fill="#484948"/>
<path fill-rule="evenodd" clip-rule="evenodd" d="M43.6161 163.321L37.5178 144.326L39.2118 143.778L45.3101 162.774L43.6161 163.321Z" fill="#484948"/>
<path fill-rule="evenodd" clip-rule="evenodd" d="M53.0839 163.197L50.876 148.874L52.6259 148.602L54.8341 162.926L53.0839 163.197Z" fill="#484948"/>
<path fill-rule="evenodd" clip-rule="evenodd" d="M73.2262 163.321L71.532 162.774L77.6322 143.778L79.3243 144.326L73.2262 163.321Z" fill="#484948"/>
<path fill-rule="evenodd" clip-rule="evenodd" d="M63.759 163.197L62.0083 162.926L64.2152 148.602L65.9662 148.874L63.759 163.197Z" fill="#484948"/>
<path fill-rule="evenodd" clip-rule="evenodd" d="M103.376 57.32L102.812 55.6265L103.095 56.4742L102.242 56.413C102.228 56.281 102.16 56.0495 102.073 55.7279C101.641 54.113 100.742 50.7528 101.023 45.7834C101.343 40.1462 103.543 38.0203 104.599 36.9966L104.803 36.7974C105.924 35.6742 107.417 35.0563 109.004 35.0563C112.28 35.0563 114.947 37.7216 114.947 40.9977C114.947 44.2755 112.28 46.941 109.004 46.941V45.1576C111.296 45.1576 113.161 43.2919 113.161 40.9977C113.161 38.7054 111.296 36.8397 109.004 36.8397C107.893 36.8397 106.85 37.272 106.064 38.0585L105.84 38.2785C104.876 39.2104 103.084 40.9441 102.804 45.8848C102.538 50.5691 103.388 53.7417 103.795 55.2669C104.036 56.17 104.266 57.0235 103.376 57.32Z" fill="#484948"/>
<path fill-rule="evenodd" clip-rule="evenodd" d="M68.1924 38.5758H84.8904V36.7314H68.1924V38.5758Z" fill="#FFFFFE"/>
<path fill-rule="evenodd" clip-rule="evenodd" d="M54.5867 44.7614H82.4164V42.9151H54.5867V44.7614Z" fill="#FFFFFE"/>
<path fill-rule="evenodd" clip-rule="evenodd" d="M85.7563 55.4029C85.7563 58.0329 83.6239 60.165 80.9942 60.165C78.3643 60.165 76.2322 58.0329 76.2322 55.4029C76.2322 52.7732 78.3643 50.6409 80.9942 50.6409C83.6239 50.6409 85.7563 52.7732 85.7563 55.4029Z" fill="#5D3649"/>
<path fill-rule="evenodd" clip-rule="evenodd" d="M60.029 21.5732C60.029 27.5838 55.1558 32.4588 49.1433 32.4588C43.1328 32.4588 38.2598 27.5838 38.2598 21.5732C38.2598 15.5627 43.1328 10.6897 49.1433 10.6897C55.1558 10.6897 60.029 15.5627 60.029 21.5732Z" fill="#5D3649"/>
<path fill-rule="evenodd" clip-rule="evenodd" d="M19.7068 66.6542H43.2074V64.8079H19.7068V66.6542Z" fill="#FFFFFE"/>
<path fill-rule="evenodd" clip-rule="evenodd" d="M18.099 72.5902H33.56V70.7458H18.099V72.5902Z" fill="#FFFFFE"/>
<path fill-rule="evenodd" clip-rule="evenodd" d="M73.1399 70.7348H86.3743V68.8904H73.1399V70.7348Z" fill="#FFFFFE"/>
<path fill-rule="evenodd" clip-rule="evenodd" d="M109.628 29.2992H134.613V27.4548H109.628V29.2992Z" fill="#FFFFFE"/>
<path fill-rule="evenodd" clip-rule="evenodd" d="M117.915 55.8922H132.139V54.0478H117.915V55.8922Z" fill="#FFFFFE"/>
<path fill-rule="evenodd" clip-rule="evenodd" d="M111.483 51.8105H119.77V49.966H111.483V51.8105Z" fill="#FFFFFE"/>
<path fill-rule="evenodd" clip-rule="evenodd" d="M28.1172 39.4417H38.2595V37.5973H28.1172V39.4417Z" fill="#FFFFFE"/>
<path fill-rule="evenodd" clip-rule="evenodd" d="M69.4922 20.6412C68.2599 20.6412 67.2597 21.6416 67.2597 22.8739C67.2597 24.1043 68.2599 25.1067 69.4922 25.1067C70.7247 25.1067 71.7249 24.1043 71.7249 22.8739C71.7249 21.6416 70.7247 20.6412 69.4922 20.6412ZM69.4922 26.8928C67.2769 26.8928 65.4714 25.0894 65.4714 22.8739C65.4714 20.6585 67.2769 18.8531 69.4922 18.8531C71.7077 18.8531 73.5112 20.6585 73.5112 22.8739C73.5112 25.0894 71.7077 26.8928 69.4922 26.8928Z" fill="#484948"/>
<path fill-rule="evenodd" clip-rule="evenodd" d="M92.8671 6.7911C90.275 6.7911 88.167 8.9012 88.167 11.4937C88.167 14.0861 90.275 16.1962 92.8671 16.1962C95.4612 16.1962 97.5689 14.0861 97.5689 11.4937C97.5689 8.9012 95.4612 6.7911 92.8671 6.7911ZM92.8671 17.9873C89.2874 17.9873 86.3743 15.0758 86.3743 11.4936C86.3743 7.9134 89.2874 5.00002 92.8671 5.00002C96.4486 5.00002 99.3617 7.9134 99.3617 11.4936C99.3617 15.0758 96.4486 17.9873 92.8671 17.9873Z" fill="#484948"/>
<path fill-rule="evenodd" clip-rule="evenodd" d="M14.2643 142.343C12.1778 142.343 10.4792 144.042 10.4792 146.128C10.4792 148.217 12.1778 149.914 14.2643 149.914C16.3528 149.914 18.0495 148.217 18.0495 146.128C18.0495 144.042 16.3528 142.343 14.2643 142.343ZM14.2643 151.694C11.1976 151.694 8.69836 149.197 8.69836 146.128C8.69836 143.06 11.1976 140.562 14.2643 140.562C17.333 140.562 19.8303 143.06 19.8303 146.128C19.8303 149.197 17.333 151.694 14.2643 151.694Z" fill="#484948"/>
<path fill-rule="evenodd" clip-rule="evenodd" d="M40.3627 102.466C40.3627 104.924 38.3701 106.919 35.9108 106.919C33.4519 106.919 31.4573 104.924 31.4573 102.466C31.4573 100.007 33.4519 98.0136 35.9108 98.0136C38.3701 98.0136 40.3627 100.007 40.3627 102.466Z" fill="#FFFFFE"/>
<path fill-rule="evenodd" clip-rule="evenodd" d="M47.9072 95.3533C47.9072 96.8213 46.7171 98.0136 45.2491 98.0136C43.781 98.0136 42.5887 96.8213 42.5887 95.3533C42.5887 93.8833 43.781 92.6949 45.2491 92.6949C46.7171 92.6949 47.9072 93.8833 47.9072 95.3533Z" fill="#FFFFFE"/>
<path fill-rule="evenodd" clip-rule="evenodd" d="M137.952 92.324C137.952 95.4004 135.463 97.89 132.386 97.89C129.314 97.89 126.82 95.4004 126.82 92.324C126.82 89.2514 129.314 86.7579 132.386 86.7579C135.463 86.7579 137.952 89.2514 137.952 92.324Z" fill="#5D3649"/>
<path fill-rule="evenodd" clip-rule="evenodd" d="M109.752 66.1021C109.752 67.4663 108.646 68.5757 107.279 68.5757C105.912 68.5757 104.804 67.4663 104.804 66.1021C104.804 64.7357 105.912 63.6283 107.279 63.6283C108.646 63.6283 109.752 64.7357 109.752 66.1021Z" fill="#5D3649"/>
<path fill-rule="evenodd" clip-rule="evenodd" d="M139.931 102.034C139.931 103.639 138.631 104.94 137.025 104.94C135.421 104.94 134.118 103.639 134.118 102.034C134.118 100.428 135.421 99.1267 137.025 99.1267C138.631 99.1267 139.931 100.428 139.931 102.034Z" fill="#5D3649"/>
</g>
</svg>
