<svg width="42" height="35" viewBox="0 0 42 35" fill="none" xmlns="http://www.w3.org/2000/svg">
<path fill-rule="evenodd" clip-rule="evenodd" d="M36.5463 24.4881C36.5463 27.1732 34.3691 29.35 31.6846 29.35C28.9996 29.35 26.8224 27.1732 26.8224 24.4881C26.8224 21.8029 28.9996 19.6262 31.6846 19.6262C34.3691 19.6262 36.5463 21.8029 36.5463 24.4881Z" fill="#869F3D"/>
<path fill-rule="evenodd" clip-rule="evenodd" d="M36.011 26.7286C35.2704 26.7286 34.6681 27.3305 34.6681 28.0713C34.6681 28.8122 35.2704 29.4142 36.011 29.4142C36.7512 29.4142 37.3539 28.8122 37.3539 28.0713C37.3539 27.3305 36.7512 26.7286 36.011 26.7286ZM36.011 29.7961C35.0599 29.7961 34.2863 29.0222 34.2863 28.0713C34.2863 27.1205 35.0599 26.3466 36.011 26.3466C36.962 26.3466 37.7357 27.1205 37.7357 28.0713C37.7357 29.0222 36.962 29.7961 36.011 29.7961Z" fill="#484948"/>
<path fill-rule="evenodd" clip-rule="evenodd" d="M33.0671 18.3772C33.0671 27.4589 25.7049 34.8215 16.6228 34.8215C7.54113 34.8215 0.178467 27.4589 0.178467 18.3772C0.178467 9.29507 7.54113 1.93288 16.6228 1.93288C25.7049 1.93288 33.0671 9.29507 33.0671 18.3772Z" fill="#FFFFFE"/>
<path fill-rule="evenodd" clip-rule="evenodd" d="M29.0229 18.3626C29.0229 25.2028 23.4776 30.7476 16.6376 30.7476C9.79753 30.7476 4.25232 25.2028 4.25232 18.3626C4.25232 11.5224 9.79753 5.97705 16.6376 5.97705C23.4776 5.97705 29.0229 11.5224 29.0229 18.3626Z" fill="#5D3649"/>
<path fill-rule="evenodd" clip-rule="evenodd" d="M26.4345 25.5489H24.5986C24.6015 25.5346 24.6024 25.5194 24.6051 25.5051H23.829C23.2364 25.5051 22.7559 25.0252 22.7559 24.4328C22.7559 23.8708 23.1889 23.4107 23.7386 23.3646C23.716 23.348 23.6939 23.3319 23.6708 23.3162H25.3835C27.7054 23.3162 29.5879 21.4344 29.5879 19.1131V16.7491C29.5879 14.4279 27.7054 12.5464 25.3835 12.5464H24.2865C24.6323 12.2956 24.8578 11.8895 24.8578 11.4298C24.8578 10.6683 24.2403 10.051 23.4785 10.051H7.71363C6.95177 10.051 6.33386 10.6683 6.33386 11.4298C6.33386 12.1915 6.95177 12.8092 7.71363 12.8092H9.93588C10.861 12.8092 11.6113 13.5584 11.6113 14.4836C11.6113 15.4084 10.861 16.1585 9.93588 16.1585H9.73854C9.76345 16.1926 9.78649 16.2281 9.81275 16.2618C7.99814 16.3457 6.55289 17.8426 6.55289 19.6774C6.55289 21.5662 8.08438 23.0972 9.97371 23.0972H10.0876C9.27506 23.4171 8.69861 24.2069 8.69861 25.1331C8.69861 26.3418 9.67903 27.3219 10.8882 27.3219H17.0952C17.2004 27.3639 17.3153 27.3874 17.4356 27.3874H26.4345C26.9427 27.3874 27.354 26.9762 27.354 26.4686C27.354 25.9601 26.9427 25.5489 26.4345 25.5489Z" fill="#FFFFFE"/>
<path fill-rule="evenodd" clip-rule="evenodd" d="M21.7673 17.7379C21.7673 20.2096 19.7701 22.2132 17.3066 22.2132C14.8434 22.2132 12.8463 20.2096 12.8463 17.7379C12.8463 15.2662 14.8434 13.2625 17.3066 13.2625C19.7701 13.2625 21.7673 15.2662 21.7673 17.7379Z" fill="#EEA52E"/>
<path fill-rule="evenodd" clip-rule="evenodd" d="M9.4256 16.4818C7.90033 16.7474 6.75791 18.073 6.75791 19.6625C6.75791 21.4428 8.20659 22.8911 9.98741 22.8911H11.1109L10.1714 23.2609C9.40162 23.5643 8.90399 24.2938 8.90399 25.1192C8.90399 26.2208 9.80014 27.1172 10.902 27.1172L26.4508 27.1827C26.8526 27.1827 27.1791 26.8562 27.1791 26.455C27.1791 26.0534 26.8526 25.7265 26.4508 25.7265H24.3813L23.8449 25.6827C23.1475 25.6827 22.5802 25.116 22.5802 24.4188C22.5802 23.9217 22.8759 23.4823 23.3039 23.2775L25.3997 23.1106C27.6127 23.1106 29.4128 21.3105 29.4128 19.0981V16.7335C29.4128 14.5212 27.6127 12.722 25.3997 12.722H23.7116L24.1899 12.3752C24.4985 12.1516 24.6825 11.7919 24.6825 11.4133C24.6825 10.7586 24.1498 10.226 23.4944 10.226H7.72691C7.07154 10.226 6.53883 10.7586 6.53883 11.4133C6.53883 12.0686 7.07154 12.6012 7.72691 12.6012H9.94959C10.979 12.6012 11.8166 13.4385 11.8166 14.4677C11.8166 15.3258 11.2341 16.0507 10.444 16.2683C10.343 16.296 9.55937 16.4587 9.4256 16.4818ZM26.4509 27.5658L10.902 27.5003C9.5889 27.5003 8.52068 26.4324 8.52068 25.1192C8.52068 24.3639 8.86985 23.6764 9.44682 23.2338C7.71031 22.9723 6.3746 21.4709 6.3746 19.6625C6.3746 17.8448 7.71493 16.4375 9.475 16.0866C9.475 16.0866 10.1783 15.9382 10.2863 15.9128C10.9426 15.7597 11.4333 15.1699 11.4333 14.4677C11.4333 13.6497 10.7678 12.9843 9.94959 12.9843H7.72691C6.86029 12.9843 6.15552 12.2797 6.15552 11.4133C6.15552 10.5474 6.86029 9.84282 7.72691 9.84282H23.4944C24.361 9.84282 25.0658 10.5474 25.0658 11.4133C25.0658 11.749 24.957 12.0727 24.7628 12.3387H25.3997C27.8239 12.3387 29.7961 14.3104 29.7961 16.7335V19.0981C29.7961 21.5221 27.8239 23.4938 25.3997 23.4938H24.2707L24.2776 23.4989L23.7702 23.5413C23.3177 23.5791 22.9635 23.9646 22.9635 24.4188C22.9635 24.9043 23.3588 25.2995 23.8449 25.2995H24.8504L26.4509 25.3433C27.0638 25.3433 27.5624 25.8418 27.5624 26.455C27.5624 27.0674 27.0638 27.5658 26.4509 27.5658Z" fill="#484948"/>
<path fill-rule="evenodd" clip-rule="evenodd" d="M17.3214 13.467C14.9663 13.467 13.0507 15.3829 13.0507 17.7379C13.0507 20.0929 14.9663 22.0089 17.3214 22.0089C19.6765 22.0089 21.5926 20.0929 21.5926 17.7379C21.5926 15.3829 19.6765 13.467 17.3214 13.467ZM17.3214 22.3917C14.7552 22.3917 12.6678 20.3039 12.6678 17.7379C12.6678 15.1714 14.7552 13.0841 17.3214 13.0841C19.8875 13.0841 21.9754 15.1714 21.9754 17.7379C21.9754 20.3039 19.8875 22.3917 17.3214 22.3917Z" fill="#484948"/>
<path fill-rule="evenodd" clip-rule="evenodd" d="M16.9499 16.0132C16.9499 16.6452 16.4375 17.158 15.805 17.158C15.173 17.158 14.6602 16.6452 14.6602 16.0132C14.6602 15.3807 15.173 14.8683 15.805 14.8683C16.4375 14.8683 16.9499 15.3807 16.9499 16.0132Z" fill="#FFFFFE"/>
<path fill-rule="evenodd" clip-rule="evenodd" d="M16.6374 2.10804C7.67476 2.10804 0.383324 9.39993 0.383324 18.3625C0.383324 27.3252 7.67476 34.6166 16.6374 34.6166C25.6 34.6166 32.8919 27.3252 32.8919 18.3625C32.8919 9.39993 25.6 2.10804 16.6374 2.10804ZM16.6374 35C7.46351 35 0 27.5365 0 18.3626C0 9.18822 7.46351 1.72472 16.6374 1.72472C25.8113 1.72472 33.2752 9.18822 33.2752 18.3626C33.2752 27.5365 25.8113 35 16.6374 35Z" fill="#484948"/>
<path fill-rule="evenodd" clip-rule="evenodd" d="M13.3815 5.1442C13.3815 6.57326 12.2232 7.73151 10.7946 7.73151C9.36557 7.73151 8.20728 6.57326 8.20728 5.1442C8.20728 3.71561 9.36557 2.55734 10.7946 2.55734C12.2232 2.55734 13.3815 3.71561 13.3815 5.1442Z" fill="#869F3D"/>
<path fill-rule="evenodd" clip-rule="evenodd" d="M17.3364 6.82457C17.3364 7.44009 16.8372 7.93969 16.2211 7.93969C15.6054 7.93969 15.1062 7.44009 15.1062 6.82457C15.1062 6.20852 15.6054 5.70944 16.2211 5.70944C16.8372 5.70944 17.3364 6.20852 17.3364 6.82457Z" fill="#869F3D"/>
<path fill-rule="evenodd" clip-rule="evenodd" d="M24.1163 30.0191C24.1163 30.7992 23.4839 31.4316 22.7038 31.4316C21.9238 31.4316 21.2914 30.7992 21.2914 30.0191C21.2914 29.239 21.9238 28.6066 22.7038 28.6066C23.4839 28.6066 24.1163 29.239 24.1163 30.0191Z" fill="#869F3D"/>
<path fill-rule="evenodd" clip-rule="evenodd" d="M39.6688 6.43881C39.6688 4.6076 38.184 3.12234 36.3529 3.12234C34.5218 3.12234 33.0375 4.6076 33.0375 6.43881C33.0375 7.02808 33.0375 9.08917 33.0375 9.67791C33.0375 11.5096 34.5218 12.9949 36.3529 12.9949C38.184 12.9949 39.6688 11.5096 39.6688 9.67791C39.6688 9.08917 39.6688 7.02808 39.6688 6.43881Z" fill="#869F3D"/>
<path fill-rule="evenodd" clip-rule="evenodd" d="M36.3527 0.383003C34.2109 0.383003 32.4687 2.12565 32.4687 4.26744C32.4687 6.40924 34.2109 8.15141 36.3527 8.15141C38.4945 8.15141 40.2371 6.40924 40.2371 4.26744C40.2371 2.12565 38.4945 0.383003 36.3527 0.383003ZM36.3527 8.53441C33.9998 8.53441 32.0857 6.62033 32.0857 4.26743C32.0857 1.91456 33.9998 0 36.3527 0C38.7056 0 40.6201 1.91456 40.6201 4.26743C40.6201 6.62033 38.7056 8.53441 36.3527 8.53441Z" fill="#484948"/>
<path fill-rule="evenodd" clip-rule="evenodd" d="M36.3527 0.382915C34.2109 0.382915 32.4687 2.12516 32.4687 4.26646V10.2157C32.4687 12.357 34.2109 14.0988 36.3527 14.0988C38.4945 14.0988 40.2371 12.357 40.2371 10.2157V4.26646C40.2371 2.12516 38.4945 0.382915 36.3527 0.382915ZM36.3527 14.4817C33.9998 14.4817 32.0857 12.5681 32.0857 10.2157V4.26646C32.0857 1.91412 33.9998 0 36.3527 0C38.7056 0 40.6201 1.91412 40.6201 4.26646V10.2157C40.6201 12.5681 38.7056 14.4817 36.3527 14.4817Z" fill="#484948"/>
<path fill-rule="evenodd" clip-rule="evenodd" d="M36.4539 6.45283L36.1597 6.20681L41.218 0.178421L41.5123 0.424443L36.4539 6.45283Z" fill="#484948"/>
<path fill-rule="evenodd" clip-rule="evenodd" d="M23.7299 1.35741H30.0042V0.962031H23.7299V1.35741Z" fill="#484948"/>
<path fill-rule="evenodd" clip-rule="evenodd" d="M28.3093 31.659H36.4274V31.2636H28.3093V31.659Z" fill="#484948"/>
<path fill-rule="evenodd" clip-rule="evenodd" d="M25.2166 33.8595H29.4094V33.4641H25.2166V33.8595Z" fill="#484948"/>
<path fill-rule="evenodd" clip-rule="evenodd" d="M36.1302 16.9733C35.8644 16.9733 35.6479 17.1893 35.6479 17.4551C35.6479 17.721 35.8644 17.9375 36.1302 17.9375C36.3956 17.9375 36.6121 17.721 36.6121 17.4551C36.6121 17.1893 36.3956 16.9733 36.1302 16.9733ZM36.1302 18.3178C35.6547 18.3178 35.2676 17.9306 35.2676 17.4551C35.2676 16.9801 35.6547 16.593 36.1302 16.593C36.6056 16.593 36.9923 16.9801 36.9923 17.4551C36.9923 17.9306 36.6056 18.3178 36.1302 18.3178Z" fill="#484948"/>
<path fill-rule="evenodd" clip-rule="evenodd" d="M28.25 3.56388C28.0505 3.56388 27.8883 3.72571 27.8883 3.92478C27.8883 4.12431 28.0505 4.2866 28.25 4.2866C28.449 4.2866 28.6112 4.12431 28.6112 3.92478C28.6112 3.72571 28.449 3.56388 28.25 3.56388ZM28.25 4.66865C27.8401 4.66865 27.5063 4.33487 27.5063 3.92477C27.5063 3.51514 27.8401 3.18182 28.25 3.18182C28.66 3.18182 28.9932 3.51514 28.9932 3.92477C28.9932 4.33487 28.66 4.66865 28.25 4.66865Z" fill="#484948"/>
</svg>
