<svg width="36" height="37" viewBox="0 0 36 37" fill="none" xmlns="http://www.w3.org/2000/svg">
<path d="M24.6112 31.1581C24.6112 29.8194 25.6954 28.7352 27.0342 28.7352V28.737C31.7137 28.7361 35.5086 24.9416 35.5086 20.2603C35.5086 15.8467 32.1342 12.2251 27.8243 11.8252C28.2233 11.2429 28.4574 10.5394 28.4556 9.78073C28.4543 8.28096 27.5447 6.99382 26.2466 6.4395C25.8468 6.69763 25.4211 6.92907 24.9639 7.11851C23.9541 7.53676 23.0747 8.13965 22.348 8.86984C21.8287 9.38697 21.3934 9.97192 21.0377 10.5997C20.9638 10.8049 20.8671 10.997 20.7454 11.172C20.6956 11.277 20.6404 11.3789 20.5958 11.4866L20.5976 11.4848C20.1946 12.4583 19.6018 13.3486 18.8471 14.1024C18.1204 14.8317 17.2402 15.4342 16.23 15.8529C15.2184 16.2716 14.3391 16.874 13.6128 17.6029C12.8568 18.358 12.2653 19.2488 11.8623 20.2192C11.6125 20.8216 11.2822 21.3877 10.8937 21.9141C10.7944 23.0017 10.3289 24.0609 9.49631 24.8939L9.49762 24.893C8.61998 25.7698 8.07748 26.9804 8.07748 28.3178C8.07748 30.9932 10.2449 33.1619 12.9207 33.1628L12.9193 33.1636C14.1588 33.1628 15.3991 33.6375 16.3437 34.5799C17.2205 35.4579 18.4302 36.0004 19.7685 36C22.4438 36.0009 24.6112 33.8313 24.6112 31.1581Z" fill="#F4F7F9" stroke="#060809" stroke-linecap="round" stroke-linejoin="round"/>
<path d="M23.2139 1C22.4876 1.72932 21.6078 2.33177 20.598 2.75133C19.5865 3.16871 18.7071 3.77203 17.9809 4.50136C17.2248 5.25649 16.6333 6.14725 16.2304 7.11851C15.8274 8.09021 15.2377 8.98185 14.4799 9.73392C13.7537 10.4637 12.8738 11.0666 11.8641 11.4861L11.8623 11.4857C10.8521 11.9048 9.97275 12.5073 9.24649 13.2366C8.48917 13.9913 7.89766 14.8812 7.49647 15.8524C7.09178 16.8246 6.50202 17.7158 5.74426 18.4687C5.01931 19.198 4.13818 19.8005 3.12841 20.2196C2.11646 20.6379 1.23752 21.2421 0.511257 21.9701L0.508194 21.9736C1.70127 23.7582 3.19798 25.2194 4.87712 26.3394C5.60513 25.6097 6.48452 25.0064 7.49428 24.5881L7.49603 24.5877C8.50579 24.1681 9.38562 23.5643 10.1119 22.8363C10.8679 22.0821 11.4594 21.1918 11.8623 20.2205C12.2653 19.2492 12.8568 18.3589 13.6128 17.6042C14.3391 16.8753 15.2189 16.272 16.23 15.8537C17.2402 15.4346 18.1209 14.8326 18.8471 14.1029C19.6018 13.3495 20.1946 12.4591 20.5976 11.4848V11.4866C20.9988 10.5153 21.5907 9.62411 22.348 8.87029C23.0743 8.14053 23.9524 7.53808 24.9639 7.11939C25.9758 6.70026 26.8565 6.09606 27.5828 5.36762L27.5841 5.3663C26.3901 3.58084 24.8947 2.11914 23.2139 1Z" fill="#B25B28" stroke="#060809" stroke-linecap="round" stroke-linejoin="round"/>
<path d="M27.0341 25.1031C24.3588 25.1031 22.1897 22.9339 22.1897 20.2607C22.1897 17.585 24.3588 15.4176 27.0341 15.4176C29.7082 15.4176 31.8769 17.5858 31.8769 20.2607C31.8769 22.9339 29.7082 25.1039 27.0341 25.1031Z" fill="#FFB800" stroke="#060809" stroke-linecap="round" stroke-linejoin="round"/>
<path fill-rule="evenodd" clip-rule="evenodd" d="M27.6642 23.0441C28.8529 23.0441 29.8176 22.0794 29.8176 20.8921C29.8176 22.0794 28.8529 23.0441 27.6642 23.0441Z" stroke="#060809" stroke-width="0.5" stroke-linecap="round" stroke-linejoin="round"/>
<path fill-rule="evenodd" clip-rule="evenodd" d="M4.58531 21.6756C5.59507 21.2583 6.47621 20.6554 7.20247 19.9261C7.95891 19.1731 8.54867 18.281 8.95161 17.3106C9.35587 16.3389 9.94606 15.4482 10.7034 14.6939C9.94606 15.4482 9.35543 16.3394 8.95161 17.3106C8.54867 18.281 7.95848 19.1731 7.20247 19.9261C6.47621 20.6554 5.59507 21.2583 4.58531 21.6756Z" stroke="#060809" stroke-width="0.5" stroke-linecap="round" stroke-linejoin="round"/>
<path fill-rule="evenodd" clip-rule="evenodd" d="M17.6855 8.57541C18.0902 7.60415 18.6817 6.71339 19.4377 5.95869C20.1627 5.22981 21.0438 4.62736 22.0536 4.20823L22.0553 4.20867C23.0655 3.7891 23.9449 3.18622 24.6712 2.45734C23.9454 3.18622 23.0655 3.7891 22.0553 4.20867L22.0536 4.20823C21.0438 4.62736 20.1631 5.22981 19.4377 5.95869C18.6817 6.71339 18.0902 7.60415 17.6855 8.57541Z" stroke="#060809" stroke-width="0.5" stroke-linecap="round" stroke-linejoin="round"/>
<path fill-rule="evenodd" clip-rule="evenodd" d="M23.5061 5.6638C22.4959 6.08162 21.6165 6.68494 20.8903 7.41382C20.1338 8.16677 19.5427 9.05797 19.1398 10.0292C18.7364 11.0001 18.1454 11.8917 17.3893 12.6455C18.1454 11.8917 18.7369 11.0001 19.1398 10.0292C19.5427 9.05797 20.1338 8.16677 20.8903 7.41382C21.6165 6.68494 22.4963 6.08118 23.5061 5.6638Z" stroke="#060809" stroke-width="0.5" stroke-linecap="round" stroke-linejoin="round"/>
<path fill-rule="evenodd" clip-rule="evenodd" d="M10.4072 18.7645C10.0025 19.7353 9.41099 20.6265 8.65498 21.3807C7.92872 22.1092 7.0489 22.7121 6.03914 23.1316L6.03739 23.1308C5.02719 23.5503 4.1478 24.1532 3.42154 24.8817C4.1478 24.1532 5.02719 23.5503 6.03739 23.1308L6.03914 23.1316C7.0489 22.7121 7.92872 22.1092 8.65498 21.3807C9.41099 20.6261 10.0025 19.7349 10.4072 18.7645Z" stroke="#060809" stroke-width="0.5" stroke-linecap="round" stroke-linejoin="round"/>
</svg>
